Motion_sv02_j
version=1
nRows=6
nColumns=43
inDegrees=yes
endheader
time	pelvis_tilt	pelvis_list	pelvis_rotation	pelvis_tx	pelvis_ty	pelvis_tz	hip_flexion_r	hip_adduction_r	hip_rotation_r	knee_angle_r	ankle_angle_r	subtalar_angle_r	mtp_angle_r	hip_flexion_l	hip_adduction_l	hip_rotation_l	knee_angle_l	ankle_angle_l	subtalar_angle_l	mtp_angle_l	lumbar_extension	lumbar_bending	lumbar_rotation	neck_flexion	neck_lateral_bending	neck_rotation	arm_flex_r	arm_add_r	arm_rot_r	elbow_flex_r	pro_sup_r	wrist_flex_r	wrist_dev_r	hand_finger_flex_r	arm_flex_l	arm_add_l	arm_rot_l	elbow_flex_l	pro_sup_l	wrist_flex_l	wrist_dev_l	hand_finger_flex_l
      0.64750000	     39.97556442	      5.98853866	    -76.17138008	     -0.10600156	      1.30467437	      0.62110238	     10.78439695	    -37.97050278	    -10.62034995	    -50.45166396	    -13.63440336	    -15.78621573	    -17.74690866	    107.99186590	    -15.32929775	    -18.46208174	   -106.91892713	     14.62863139	      2.07924441	     16.34253838	    -51.03145965	     -9.20269470	     -4.57186363	     13.22894832	     -2.26932288	    -14.61015270	     24.89503877	    -44.60515396	     -7.52506983	     65.45242834	    160.32667286	    -28.95908029	    -18.19058763	     77.80415965	    135.24117335	    -26.23260950	     95.94659164	     82.13194100	    132.53068759	    -46.72313935	    -17.27606262	      6.83229764
      0.65000000	     39.74768554	      5.89607952	    -76.19449145	     -0.10624535	      1.30780401	      0.62338058	     12.08399094	    -37.47618158	     -9.59351516	    -52.38575774	    -12.97203254	    -15.82816726	    -17.43246864	    108.11440214	    -15.23645858	    -18.31790688	   -106.49322211	     14.49044490	      3.28655831	     16.08895472	    -51.36411221	     -8.79671426	     -4.89316122	     13.45275018	     -2.07179669	    -14.20453583	     25.62877931	    -44.17030997	     -7.06864268	     65.21265838	    160.69134180	    -29.42210045	    -18.42682992	     77.94837381	    135.20979871	    -26.20387587	     96.42216709	     81.79673750	    132.54953661	    -46.66939680	    -17.35531924	      6.56076173
      0.65250000	     39.53892542	      5.75799527	    -76.12682951	     -0.10648544	      1.31104759	      0.62567674	     13.21057990	    -37.04790039	     -8.92364011	    -54.28985271	    -12.24831863	    -16.07467355	    -17.12058960	    108.16431554	    -15.02603196	    -18.18912143	   -106.04478588	     14.13597533	      4.35649951	     15.82120146	    -51.77919972	     -8.34250545	     -5.21910527	     13.81615366	     -1.94880520	    -13.91462475	     26.25354983	    -43.81128340	     -6.65962048	     65.02118674	    160.91949949	    -29.77726683	    -18.59272138	     78.14073665	    135.17587516	    -26.07437093	     96.82945542	     81.39018699	    132.60913137	    -46.56428067	    -17.45468953	      6.33379311
      0.65500000	     39.32633428	      5.60478938	    -76.05231762	     -0.10667391	      1.31423342	      0.62803058	     14.30648799	    -36.62133004	     -8.32487775	    -56.20087382	    -11.51562912	    -16.37980433	    -16.81652761	    108.19578622	    -14.80232382	    -18.04166649	   -105.62427721	     13.76504702	      5.51072968	     15.57220251	    -52.19558633	     -7.87941190	     -5.52660491	     14.18575702	     -1.84370543	    -13.63154104	     26.83136145	    -43.46932537	     -6.26412016	     64.86608146	    161.13454516	    -30.09025093	    -18.73495234	     78.34223629	    135.12683330	    -25.93250792	     97.21565186	     80.96368894	    132.69250535	    -46.47372597	    -17.57499215	      6.11761784
      0.65750000	     39.14687729	      5.41520921	    -75.96199986	     -0.10682430	      1.31745976	      0.63044334	     15.31605247	    -36.27317392	     -7.92603123	    -58.08926399	    -10.73564981	    -16.81833086	    -16.56878401	    108.17841969	    -14.52869547	    -17.89498611	   -105.23115265	     13.26859096	      6.56519605	     15.37801013	    -52.65886480	     -7.41804050	     -5.80892732	     14.61952050	     -1.81553555	    -13.42331312	     27.30351934	    -43.19509955	     -5.93344293	     64.77339648	    161.32264201	    -30.29394985	    -18.84650918	     78.48430984	    135.05484379	    -25.73646765	     97.55199954	     80.48552182	    132.80913086	    -46.36285190	    -17.68860125	      5.97764629
      0.66000000	     38.88945327	      5.31642027	    -75.96975648	     -0.10695586	      1.32046208	      0.63263936	     16.59997688	    -35.75298194	     -7.15668291	    -60.02737665	    -10.14973722	    -17.20704742	    -16.26637901	    108.23048645	    -14.37036780	    -17.70045797	   -104.81303601	     13.02880812	      8.02231251	     15.12641473	    -52.98928616	     -6.96812809	     -6.08438188	     14.91783220	     -1.70997849	    -13.03525469	     28.00733988	    -42.80148071	     -5.49174060	     64.57066665	    161.61881062	    -30.66026376	    -18.99463776	     78.73726594	    135.04596653	    -25.67809476	     97.98944073	     80.05537988	    132.90153308	    -46.31937709	    -17.83644164	      5.69569980
